<?xml version="1.0" standalone="no"?>
<!DOCTYPE svg PUBLIC "-//W3C//DTD SVG 20010904//EN"
 "http://www.w3.org/TR/2001/REC-SVG-20010904/DTD/svg10.dtd">
<svg version="1.0" xmlns="http://www.w3.org/2000/svg"
 width="1076.000000pt" height="477.000000pt" viewBox="0 0 1076.000000 477.000000"
 preserveAspectRatio="xMidYMid meet">
<metadata>
Created by potrace 1.13, written by Peter Selinger 2001-2015
</metadata>
<g transform="translate(0.000000,477.000000) scale(0.100000,-0.100000)"
fill="#000000" stroke="none">
<path d="M0 2385 l0 -2385 5380 0 5380 0 0 2385 0 2385 -5380 0 -5380 0 0
-2385z m1370 1459 c252 -55 420 -87 740 -139 237 -39 755 -103 1005 -124 61
-6 184 -17 275 -25 1106 -103 2751 -99 3950 10 457 41 954 101 1230 148 350
60 453 79 510 92 161 38 334 73 338 69 3 -2 -1 -7 -9 -9 -8 -2 -63 -20 -124
-40 -426 -137 -953 -251 -1547 -336 -383 -54 -439 -60 -1093 -115 -364 -30
-686 -40 -1340 -40 -824 0 -1181 18 -1955 96 -239 24 -669 85 -915 130 -176
32 -622 128 -710 153 -27 7 -95 26 -150 41 -119 32 -375 114 -375 121 0 6 -14
8 170 -32z m916 -475 c86 -15 150 -37 215 -75 68 -40 157 -119 182 -162 l18
-31 -116 -76 c-64 -41 -119 -75 -123 -75 -4 0 -30 18 -57 41 -91 75 -116 84
-245 84 -115 0 -117 0 -195 -39 -98 -48 -214 -160 -263 -252 -103 -198 -75
-417 72 -552 77 -71 156 -97 269 -90 93 6 159 35 263 114 l82 62 96 -80 c53
-44 96 -83 96 -88 0 -17 -145 -142 -217 -187 -86 -53 -207 -97 -313 -114 -190
-29 -397 39 -526 173 -188 195 -233 462 -128 763 40 113 102 211 198 312 156
163 301 242 516 276 50 8 117 7 176 -4z m6902 -196 c-25 -30 -360 -441 -410
-504 l-46 -59 47 -83 c93 -161 301 -536 301 -541 0 -3 -78 -6 -172 -6 l-173 1
-95 180 c-52 99 -100 184 -105 189 -7 6 -42 -30 -100 -102 -50 -61 -96 -117
-103 -125 -10 -10 -55 -13 -176 -13 -89 0 -165 3 -169 6 -3 3 34 54 82 112 48
59 137 169 199 244 62 75 112 143 112 151 0 8 -47 101 -105 207 -58 106 -105
194 -105 196 0 3 -11 22 -25 44 -14 22 -25 44 -25 50 0 7 54 10 162 8 l163 -3
65 -115 c36 -64 69 -121 73 -128 6 -8 50 39 139 148 l131 160 175 0 c166 0
174 -1 160 -17z m-5716 -122 c88 -79 481 -412 484 -409 1 2 17 102 34 223 17
121 33 230 36 243 4 21 7 22 139 22 l135 0 0 -24 c0 -13 -14 -125 -30 -248
-17 -122 -46 -340 -66 -483 -19 -142 -38 -262 -42 -266 -4 -4 -74 52 -157 123
-345 298 -430 367 -436 349 -4 -9 -18 -101 -33 -206 -14 -104 -29 -205 -32
-222 l-5 -33 -139 0 -139 0 4 28 c6 31 135 977 135 987 0 10 53 -30 112 -84z
m-340 39 c-5 -71 -131 -960 -137 -970 -10 -16 -264 -13 -270 3 -3 7 15 161 40
342 25 182 55 400 66 485 11 85 22 161 24 168 4 10 37 12 142 10 l138 -3 -3
-35z m2118 19 c0 -11 -5 -63 -12 -114 l-11 -95 -231 -2 -231 -3 -12 -70 c-6
-38 -9 -73 -6 -77 2 -5 89 -8 194 -8 l189 0 -6 -42 c-3 -24 -10 -70 -15 -103
-5 -33 -9 -63 -9 -67 0 -5 -87 -8 -194 -8 -222 0 -199 13 -211 -112 l-7 -68
232 0 232 0 -5 -22 c-3 -13 -9 -54 -13 -93 -3 -38 -10 -80 -15 -92 l-9 -23
-360 0 c-309 0 -361 2 -366 15 -3 8 10 130 30 272 19 142 49 359 66 483 17
124 33 231 35 238 3 9 86 12 370 12 362 0 365 0 365 -21z m700 10 c121 -19
186 -65 238 -164 51 -100 39 -298 -26 -419 -31 -57 -105 -117 -175 -140 -36
-12 -87 -16 -206 -16 -184 0 -161 19 -186 -149 -8 -57 -18 -107 -21 -112 -7
-12 -251 -12 -258 0 -4 5 12 135 33 288 22 153 51 366 66 473 15 107 29 207
32 223 l6 27 216 0 c119 0 245 -5 281 -11z m736 -51 c-4 -35 -25 -189 -46
-343 -22 -154 -42 -299 -45 -322 l-6 -43 205 0 c133 0 207 -4 211 -11 6 -9 -8
-144 -21 -206 l-4 -23 -356 0 -356 0 6 28 c3 15 22 146 41 292 20 146 49 357
65 470 17 113 30 209 30 213 0 4 64 7 141 7 l142 0 -7 -62z m1316 17 c-2 -22
-9 -71 -15 -110 l-12 -70 -230 -5 -230 -5 -7 -50 c-3 -27 -7 -62 -7 -77 l-1
-28 200 0 200 0 -1 -32 c0 -18 -6 -67 -13 -108 l-12 -75 -206 -3 -206 -2 -11
-80 c-7 -44 -9 -85 -6 -90 4 -6 93 -10 232 -10 l225 0 -6 -32 c-3 -18 -11 -67
-17 -108 -6 -41 -16 -78 -23 -82 -16 -11 -714 -10 -720 1 -3 5 21 204 53 442
33 239 63 461 66 494 4 33 9 63 12 68 2 4 169 6 371 5 l367 -3 -3 -40z m-2012
-1185 c1259 -42 2461 -218 3280 -481 160 -51 154 -49 149 -54 -3 -2 -97 16
-209 41 -796 174 -1785 288 -2910 334 -651 27 -1522 23 -2210 -10 -979 -47
-1969 -167 -2681 -325 -112 -24 -205 -42 -207 -40 -6 5 -11 3 148 54 228 72
511 145 820 211 230 49 829 142 1125 174 200 22 679 63 890 76 453 29 1282 38
1805 20z"/>
<path d="M5685 2888 c-4 -14 -35 -255 -35 -276 0 -19 183 -16 226 4 43 20 69
85 69 172 0 57 -3 66 -28 88 -26 22 -37 24 -128 24 -71 0 -101 -4 -104 -12z"/>
</g>
</svg>
